<svg xmlns="http://www.w3.org/2000/svg" width="640" height="390" viewBox="0 0 640 390">
  <defs>
    <!-- Logo Symbol -->
    <symbol id="icon-pinket-logo-colored" viewBox="0 0 64 19" xmlns="http://www.w3.org/2000/svg">
      <path fill="#35BCB1" d="M18.2 9.603c0 5.028-4.074 9.103-9.1 9.103H0V9.603C0 4.575 4.075.5 9.1.5s9.1 4.075 9.1 9.103"/>
      <path fill="#FFC615" d="M32.027 18.706c5.025 0 9.1-4.075 9.1-9.103S37.052.5 32.027.5c-5.026 0-9.1 4.076-9.1 9.103s4.074 9.103 9.1 9.103"/>
      <path fill="#E51F38" d="M64 6.569v9.103a3.034 3.034 0 0 1-3.033 3.034H48.833a3.034 3.034 0 0 1-3.033-3.034V6.569A6.07 6.07 0 0 1 51.866.5h6.067A6.07 6.07 0 0 1 64 6.569"/>
    </symbol>

    <!-- Text Symbol -->
    <symbol id="icon-pinket-text" viewBox="0 0 64 20" xmlns="http://www.w3.org/2000/svg">
      <path d="M5.865 6.247h4.09a.46.46 0 0 0 .343-.124.43.43 0 0 0 .123-.315V4.82a.43.43 0 0 0-.123-.316.46.46 0 0 0-.343-.124H5.864a.38.38 0 0 0-.301.124.46.46 0 0 0-.11.316v.988q0 .193.11.315a.38.38 0 0 0 .302.124"/>
      <path d="M33.73 6.247h.988a.43.43 0 0 0 .316-.123.43.43 0 0 0 .124-.316V4.82a.43.43 0 0 0-.124-.315.43.43 0 0 0-.316-.123h-.988a.43.43 0 0 0-.316.123.43.43 0 0 0-.123.315v.99a.43.43 0 0 0 .123.315.43.43 0 0 0 .316.123"/>
      <path d="M46.467 15.131h-3.816a.4.4 0 0 0-.302.11.4.4 0 0 0-.11.302v1.016q0 .193.11.316a.38.38 0 0 0 .302.123h3.816a.38.38 0 0 0 .302-.123.46.46 0 0 0 .11-.316v-1.016a.4.4 0 0 0-.11-.302.4.4 0 0 0-.302-.11"/>
      <path d="M63.873 4.506a.45.45 0 0 0-.356-.153h-.797c-.29 0-.456.186-.456.511v3.789c0 .682-.13 1.196-.385 1.529-.262.34-.69.513-1.273.513h-8.29c-.514 0-.895-.169-1.164-.515-.274-.35-.413-.863-.413-1.528V4.863a.45.45 0 0 0-.153-.355.5.5 0 0 0-.33-.128h-.796c-.308 0-.483.176-.483.483v3.872c0 .624-.155 1.113-.462 1.453s-.726.507-1.279.507h-5.82c-.513 0-.893-.169-1.163-.515-.274-.35-.412-.863-.412-1.528V4.863a.45.45 0 0 0-.153-.355.5.5 0 0 0-.33-.128h-.797c-.307 0-.483.176-.483.483v3.872c0 .624-.155 1.113-.462 1.453s-.725.507-1.278.507H32.33l-1.622-.028c-.6 0-1.046-.147-1.322-.44-.277-.294-.418-.704-.418-1.218l-.003-.125h-.006a3.28 3.28 0 0 0-.933-2.131c-.626-.645-1.442-.973-2.424-.973h-2.584l3.254-3.879a.5.5 0 0 0 .143-.36q0-.187-.174-.363l-.59-.479a.53.53 0 0 0-.324-.107q-.189-.001-.39.202l-4.154 4.922-.004.006a.57.57 0 0 0-.108.35c0 .112.013.19.04.246l.382.876c.066.148.21.323.528.323h3.57c.626 0 1.127.139 1.487.413.355.27.527.66.527 1.19 0 1.041-.704 1.548-2.153 1.548l-5.984.027h-1.537c-.514 0-.894-.168-1.164-.514-.274-.35-.412-.855-.412-1.5V4.863a.45.45 0 0 0-.153-.356.5.5 0 0 0-.33-.127h-.797c-.307 0-.483.176-.483.483v3.789c0 1.374-.57 2.042-1.74 2.042H3.42c-.533 0-.931-.174-1.22-.53-.29-.359-.438-.867-.438-1.512V4.864a.45.45 0 0 0-.153-.356.5.5 0 0 0-.33-.127H.483a.5.5 0 0 0-.33.127.45.45 0 0 0-.153.356v3.789c0 1.125.311 2.045.924 2.733.617.693 1.456 1.044 2.497 1.044h9.032c1.156 0 2.033-.441 2.607-1.312.57.871 1.4 1.312 2.472 1.312h8.07c1.001 0 1.82-.312 2.438-.929l.072-.075q.048.05.097.093c.66.605 1.502.911 2.501.911h5.628c.621 0 1.163-.115 1.608-.342a2.9 2.9 0 0 0 1.027-.903c.584.827 1.405 1.245 2.444 1.245h5.82c.622 0 1.163-.115 1.609-.342a2.9 2.9 0 0 0 1.026-.903c.584.827 1.405 1.245 2.444 1.245h8.29c1.06 0 1.9-.347 2.498-1.03.594-.68.896-1.605.896-2.747V4.864a.52.52 0 0 0-.127-.358"/>
      <path d="M58.08 15.131h-3.815a.4.4 0 0 0-.303.11.4.4 0 0 0-.11.303v3.376q0 .412.44.412h.96q.44 0 .44-.412v-1.727c0-.108.087-.195.195-.195h2.194a.38.38 0 0 0 .302-.123.46.46 0 0 0 .11-.316v-1.015a.4.4 0 0 0-.11-.303.4.4 0 0 0-.303-.11"/>
    </symbol>
  </defs>

  <!-- Use both icons -->
  <g transform="translate(0,0)">
    <use href="#icon-pinket-logo-colored" x="0" y="0" width="640" height="190" />
    <use href="#icon-pinket-text" x="0" y="200" width="640" height="200" />
  </g>
</svg>
