<?xml version="1.0" encoding="utf-8"?>
<!-- Generator: Adobe Illustrator 28.1.0, SVG Export Plug-In . SVG Version: 6.00 Build 0)  -->
<svg version="1.1" id="Layer_1" xmlns="http://www.w3.org/2000/svg" xmlns:xlink="http://www.w3.org/1999/xlink" x="0px" y="0px"
	 viewBox="0 0 177.4 288" style="enable-background:new 0 0 177.4 288;" xml:space="preserve">
<style type="text/css">
	.st0{fill:#FFFFFF;}
</style>
<g>
	<path class="st0" d="M11.6,36.7h1.3c2.6,0,3.2-1,3.2-3.7v-8.3L5.9,6.4C3.9,2.7,3.2,2.3,0.6,2.3H0.1V0.7c2.3,0.1,4.5,0.2,6.6,0.2
		c2.2,0,4.5-0.1,6.7-0.2v1.6h-0.9c-1.1,0-2,0.4-2,1.7c0,0.7,0.6,2.2,1.2,3.1l7.8,14.1l7.3-13.9c0.4-0.8,1.4-2.8,1.4-3.7
		c0-0.9-0.6-1.2-2.1-1.2h-1V0.7c2.2,0.1,3.6,0.2,5.2,0.2c1.7,0,3.5-0.1,5.2-0.2v1.6h-1.3C32.1,2.3,31.7,3,30,6l-9.3,17.5v9.4
		c0,3.1,1.2,3.7,3.2,3.7H25v1.6c-2.2-0.1-4.5-0.2-6.7-0.2c-2.3,0-4.7,0.1-6.7,0.2V36.7z"/>
	<path class="st0" d="M63.6,0c10.5,0,19.7,8.5,19.7,19.5c0,9.3-7.2,19.5-19.8,19.5c-11.4,0-19.6-8.6-19.6-19C43.8,8.1,53.2,0,63.6,0
		z M63.4,2.2C56,2.2,49.1,6.8,49.1,19c0,8.5,5.6,17.9,14.7,17.9C73.5,36.9,78,29.8,78,20C78,11.6,72.7,2.2,63.4,2.2z"/>
	<path class="st0" d="M95.8,36.7h0.9c2.4,0,3.5-0.9,3.5-4.3V6.6c0-3.4-1.1-4.3-3.5-4.3h-0.9V0.7c1.8,0.1,4.4,0.2,6.8,0.2
		c3.5,0,6.1-0.2,8.4-0.2c9.3,0,11,7.3,11,9.8c0,6.9-4.9,9-7.5,9.9l7.1,11.7c2.9,4.8,3.7,5.1,8,5.3v1.1c-1,0-2,0.1-3,0.1
		c-4.6,0-6.8-0.6-9.6-5.2l-6.2-10.1c-1.2-2-1.9-2.1-6-2.2v10c0,5,0.9,5.6,3,5.6h1.5v1.6c-2.3-0.1-4.5-0.2-6.9-0.2
		c-2.4,0-4.9,0.1-6.8,0.2V36.7z M104.9,18.7c0.9,0.3,2.2,0.4,3.6,0.4c4.8,0,8.7-2.2,8.7-7.7c0-2.3-1.6-8.8-8.9-8.8
		c-1.3,0-2.3,0.1-3.3,0.2V18.7z"/>
	<path class="st0" d="M141,36.7h1c2.4,0,3.5-0.9,3.5-4.3V6.6c0-3.4-1.1-4.3-3.5-4.3h-1V0.7c1.9,0.1,4.4,0.2,6.8,0.2
		c2.3,0,4.5-0.1,6.9-0.2v1.6h-1.5c-2.1,0-3,0.6-3,5.6v12.4l11.6-12.9c0.5-0.6,2.5-2.7,2.5-3.7c0-0.9-0.7-1.4-1.7-1.4h-0.9V0.7
		c2,0.1,4.2,0.2,6.2,0.2c2.1,0,4.2-0.1,6.3-0.2v1.6h-1c-2.6,0-3.5,0.5-6.6,3.7l-10.2,10.7l13.6,15.9c3,3.5,4.5,4,6.6,4h0.8v1.6
		c-1.7-0.1-3.4-0.2-5.1-0.2c-1.7,0-3.4,0.1-5.1,0.2c-0.3-1.5-0.4-2.3-3.4-5.8l-10.8-12.4l-2.7,2.9v8.1c0,5,0.9,5.6,3,5.6h1.5v1.6
		c-2.3-0.1-4.5-0.2-6.9-0.2c-2.4,0-4.9,0.1-6.8,0.2V36.7z"/>
</g>
<path class="st0" d="M123.4,206.1c-30.1,0-56.2-18.6-56.2-59.3V50.1H0v177.4h177.4v-64.7C172.1,188.6,153.4,206.1,123.4,206.1z"/>
<path class="st0" d="M123.4,169.8c16.2,0,21.1-14.2,21.1-28.1V50.1h-41.3v91.6C103.2,156.1,108.4,169.8,123.4,169.8z"/>
<rect y="264.4" class="st0" width="177.4" height="1.2"/>
<g>
	<path class="st0" d="M10.9,251.4c0,4.8-2.9,6.1-5.3,6.1c-2.4,0-5.3-1.2-5.3-6.1v-8.9h1.9v9.4c0,2,0.9,4,3.4,4c2.6,0,3.4-2.1,3.4-4
		v-9.4h1.9V251.4z"/>
	<path class="st0" d="M22,242.6h2.5l5.9,10.2c0.3,0.5,0.8,1.5,1,2h0.1c0-0.5-0.1-1.2-0.1-1.8v-10.4h1.9v14.6h-2.5l-5.8-10.3
		c-0.3-0.5-0.8-1.5-1-2h-0.1c0,0.5,0.1,1.2,0.1,1.8v10.5H22V242.6z"/>
	<path class="st0" d="M46.2,242.6v14.6h-1.9v-14.6H46.2z"/>
	<path class="st0" d="M61.4,253.6c0.2,0.6,0.4,1.2,0.5,1.8H62c0.1-0.6,0.3-1.2,0.5-1.8l3.7-11h2l-5,14.6h-2.4l-4.9-14.6h2.1
		L61.4,253.6z"/>
	<path class="st0" d="M77.7,242.6h8.8v1.5h-6.9v4.8h6.5v1.5h-6.5v5.3h7.1v1.5h-9V242.6z"/>
	<path class="st0" d="M97.1,242.6h5c2.5,0,4.5,1.2,4.5,3.9c0,2.8-1.9,3.5-2.7,3.7l3.5,7h-2.3l-3-6.6H99v6.6h-1.9V242.6z M99,249.1h3
		c2.1,0,2.7-1.3,2.7-2.4c0-2.4-2.1-2.5-3-2.5H99V249.1z"/>
	<path class="st0" d="M118.2,253.7c0.3,1,1.1,2.3,3,2.3c1.8,0,2.8-1.3,2.8-2.5c0-1.6-1-2.1-1.5-2.3l-3.5-1.6
		c-1.4-0.6-2.2-1.7-2.2-3.2c0-2.9,2.5-4,4.6-4c2.1,0,3.8,0.7,4.5,2.7l-1.8,0.6c-0.3-1.4-1.6-1.8-2.6-1.8c-1.8,0-2.6,1-2.6,2.4
		c0,1.4,1,1.9,1.9,2.3l2.6,1.2c0.9,0.4,2.7,1.3,2.7,3.8c0,1.4-0.8,4.1-5,4.1c-3.2,0-4.4-2-4.7-3.1L118.2,253.7z"/>
	<path class="st0" d="M138.5,242.6v14.6h-1.9v-14.6H138.5z"/>
	<path class="st0" d="M152.4,244.2h-4.2v-1.6h10.4v1.6h-4.2v13h-1.9V244.2z"/>
	<path class="st0" d="M168.1,242.6h8.8v1.5H170v4.8h6.5v1.5H170v5.3h7.1v1.5h-9V242.6z M172.8,238.7h2.2l-2.9,2.9h-1.4L172.8,238.7z
		"/>
	<path class="st0" d="M10.9,281.9c0,4.8-2.9,6.1-5.3,6.1c-2.4,0-5.3-1.2-5.3-6.1v-8.9h1.9v9.4c0,2,0.9,4,3.4,4c2.6,0,3.4-2.1,3.4-4
		v-9.4h1.9V281.9z"/>
	<path class="st0" d="M21.8,273.1h2.5l5.9,10.2c0.3,0.5,0.8,1.5,1,2h0.1c0-0.5-0.1-1.2-0.1-1.8v-10.4H33v14.6h-2.5l-5.8-10.3
		c-0.3-0.5-0.8-1.5-1-2h-0.1c0,0.5,0.1,1.2,0.1,1.8v10.5h-1.9V273.1z"/>
	<path class="st0" d="M45.8,273.1v14.6h-1.9v-14.6H45.8z"/>
	<path class="st0" d="M60.8,284.1c0.2,0.6,0.3,1.2,0.5,1.8h0.1c0.1-0.6,0.3-1.2,0.5-1.8l3.7-11h1.9l-5,14.6h-2.4l-4.9-14.6h2.1
		L60.8,284.1z"/>
	<path class="st0" d="M76.9,273.1h8.8v1.5h-6.9v4.8h6.5v1.5h-6.5v5.3h7.1v1.5h-9V273.1z"/>
	<path class="st0" d="M96,273.1h5c2.5,0,4.5,1.2,4.5,3.9c0,2.8-1.9,3.5-2.7,3.7l3.5,7h-2.3l-3-6.6h-3.2v6.6H96V273.1z M97.9,279.6h3
		c2.1,0,2.7-1.3,2.7-2.4c0-2.4-2.1-2.5-3-2.5h-2.8V279.6z"/>
	<path class="st0" d="M117,284.2c0.3,1,1.1,2.3,3,2.3c1.8,0,2.8-1.3,2.8-2.5c0-1.6-1-2.1-1.5-2.3l-3.5-1.6c-1.4-0.6-2.2-1.7-2.2-3.2
		c0-2.8,2.5-4,4.6-4c2.1,0,3.8,0.7,4.5,2.7l-1.8,0.6c-0.3-1.4-1.6-1.8-2.6-1.8c-1.8,0-2.6,1-2.6,2.4c0,1.4,1,1.9,1.9,2.3l2.6,1.1
		c0.9,0.4,2.7,1.3,2.7,3.8c0,1.4-0.8,4.1-5,4.1c-3.2,0-4.4-2-4.7-3.1L117,284.2z"/>
	<path class="st0" d="M137,273.1v14.6h-1.9v-14.6H137z"/>
	<path class="st0" d="M150.7,274.7h-4.2v-1.6h10.4v1.6h-4.2v13h-1.9V274.7z"/>
	<path class="st0" d="M170.1,281.7l-5.2-8.6h2.3l3.3,5.7c0.2,0.4,0.4,0.8,0.6,1.2h0c0.2-0.4,0.4-0.8,0.6-1.2l3.3-5.7h2.1l-5.2,8.6v6
		h-1.9V281.7z"/>
</g>
</svg>
